<svg viewBox="0 0 1024 1024" xmlns="http://www.w3.org/2000/svg">
<g clip-path="url(#clip0)">
<path d="M746.965 610.432L746.581 613.632C652.757 566.869 642.944 560.64 630.827 578.816C622.421 591.402 597.931 619.946 590.549 628.394C583.083 636.714 575.659 637.354 562.987 631.594C550.187 625.194 509.099 611.754 460.459 568.234C422.571 534.314 397.141 492.714 389.632 479.914C377.131 458.325 403.285 455.253 427.093 410.197C431.36 401.237 429.184 394.197 426.027 387.84C422.827 381.44 397.355 318.72 386.688 293.717C376.448 268.8 365.909 271.957 358.016 271.957C333.44 269.824 315.477 270.165 299.648 286.634C230.784 362.325 248.149 440.405 307.072 523.434C422.869 674.986 484.565 702.89 597.376 741.632C627.84 751.317 655.616 749.952 677.589 746.794C702.08 742.912 752.981 716.032 763.605 685.952C774.485 655.872 774.485 630.912 771.285 625.152C768.128 619.392 759.765 616.192 746.965 610.432V610.432Z"/>
<path d="M875.52 147.157C547.456 -169.984 4.52267 60.0319 4.30933 507.435C4.30933 596.864 27.7333 684.075 72.3627 761.088L0 1024L270.293 953.515C607.573 1135.7 1023.83 893.781 1024 507.691C1024 372.181 971.093 244.651 874.88 148.821L875.52 147.157ZM938.752 506.283C938.496 831.957 580.992 1035.35 298.24 869.12L282.88 859.989L122.88 901.589L165.76 746.069L155.563 730.069C-20.3947 449.963 181.76 83.8826 515.072 83.8826C628.309 83.8826 734.592 128.043 814.635 208.043C894.635 287.36 938.752 393.643 938.752 506.283V506.283Z"/>
</g>
<defs>
<clipPath id="clip0">
<rect width="1024" height="1024"/>
</clipPath>
</defs>
</svg>
