<svg id="Capa_1" enable-background="new 0 0 511.594 511.594" viewBox="0 0 511.594 511.594" xmlns="http://www.w3.org/2000/svg"><g><path id="XMLID_787_" d="m510.246 250.715-80.599-144.212c11.84-5.666 20.038-17.763 20.038-31.741 0-5.522-4.478-10-10-10s-10 4.478-10 10c0 8.363-6.805 15.168-15.168 15.168s-15.168-6.805-15.168-15.168c0-5.522-4.478-10-10-10h-91.568c2.573-5.734 4.016-12.081 4.016-18.762 0-25.364-20.636-46-46-46s-46 20.636-46 46c0 6.681 1.444 13.027 4.016 18.762h-91.568c-5.522 0-10 4.478-10 10 0 8.363-6.805 15.168-15.168 15.168s-15.168-6.805-15.168-15.168c0-5.522-4.478-10-10-10s-10 4.478-10 10c0 13.978 8.198 26.075 20.038 31.741l-80.599 144.212c-.833 1.491-1.271 3.171-1.271 4.879 0 45.215 36.785 82 82 82h30c45.215 0 82-36.785 82-82 0-1.708-.438-3.388-1.271-4.879l-80.6-144.212c8.898-4.259 15.74-12.148 18.59-21.741h91.28v352.832h-23.666c-35.29 0-64 28.71-64 64 0 5.522 4.478 10 10 10h223.333c5.522 0 10-4.478 10-10 0-35.29-28.71-64-64-64h-23.666v-352.832h90.72c2.85 9.593 9.692 17.482 18.59 21.741l-80.6 144.212c-.833 1.491-1.271 3.171-1.271 4.879 0 45.215 36.785 82 82 82h30.001c45.215 0 81.999-36.785 81.999-82 .001-1.708-.437-3.388-1.27-4.879zm-413.169-130.288 69.955 125.167h-139.91zm15 197.167h-30c-30.78 0-56.377-22.555-61.175-52h152.35c-4.798 29.445-30.395 52-61.175 52zm143.72-297.594c14.337 0 26 11.663 26 26s-11.663 26-26 26-26-11.663-26-26 11.663-26 26-26zm100.8 471.594h-201.04c4.539-19.461 22.03-34 42.854-34h115.333c20.822 0 38.314 14.539 42.853 34zm-114.52-54v-347.685c4.335 1.357 8.943 2.091 13.72 2.091 4.985 0 9.782-.808 14.28-2.281v347.875zm242.394-192h-139.91l69.955-125.167zm-54.953 72h-30.001c-30.78 0-56.377-22.555-61.175-52h152.35c-4.798 29.445-30.394 52-61.174 52z"/></g></svg>