<svg id="Capa_1" enable-background="new 0 0 512 512" viewBox="0 0 512 512" xmlns="http://www.w3.org/2000/svg"><g><path d="m457.29 341.679c0-4.142-3.358-7.5-7.5-7.5s-7.5 3.358-7.5 7.5v68.828h-322.356v-123.924c0-4.142-3.358-7.5-7.5-7.5s-7.5 3.358-7.5 7.5v123.924h-10.738c-9.244 0-17.75 3.202-24.486 8.544v-386.552c0-9.649 7.85-17.5 17.5-17.5h17.725v228.032c0 4.142 3.358 7.5 7.5 7.5s7.5-3.358 7.5-7.5v-228.031h35.367c4.142 0 7.5-3.358 7.5-7.5s-3.358-7.5-7.5-7.5h-68.093c-17.92 0-32.499 14.579-32.499 32.499v417.494c0 21.772 17.713 39.485 39.486 39.485h54.2v11.983c0 4.142 2.333 7.798 6.089 9.542 1.439.668 2.957.996 4.46.996 2.422 0 4.806-.85 6.758-2.499l16.714-14.111 16.714 14.111c3.163 2.672 7.462 3.248 11.218 1.503s6.089-5.401 6.089-9.542v-11.983h223.086c9.796 0 17.765-7.969 17.765-17.765v-130.034zm-255.851 150.14-12.235-10.33c-3.932-3.319-9.641-3.32-13.574.001l-12.235 10.33v-34.326h38.044zm240.852-20.105c0 1.525-1.241 2.765-2.766 2.765h-223.086v-16.986h189.318c4.142 0 7.5-3.358 7.5-7.5s-3.358-7.5-7.5-7.5h-285.18c-4.142 0-7.5 3.358-7.5 7.5s3.358 7.5 7.5 7.5h27.818v16.986h-54.2c-13.502 0-24.486-10.984-24.486-24.486s10.985-24.486 24.486-24.486h348.095v46.207z"/><path d="m439.791 0h-240.939c-4.142 0-7.5 3.358-7.5 7.5s3.358 7.5 7.5 7.5h240.938c1.378 0 2.5 1.122 2.5 2.5v280.629c0 4.142 3.358 7.5 7.5 7.5s7.5-3.358 7.5-7.5v-280.629c0-9.65-7.85-17.5-17.499-17.5z"/><path d="m151.995 151.827c-6.892 0-12.5 5.607-12.5 12.5 0 20.692 16.835 37.527 37.527 37.527h22.249c20.692 0 37.527-16.835 37.527-37.527 0-6.893-5.607-12.5-12.5-12.5h-4.699l-19.933-45.057h56.779v134.348h-13.35c-12.339 0-22.377 10.038-22.377 22.378 0 12.339 10.038 22.377 22.377 22.377h76.034c12.339 0 22.377-10.038 22.377-22.377s-10.038-22.378-22.377-22.378h-13.35v-134.347h56.78l-19.934 45.057h-4.699c-6.892 0-12.5 5.607-12.5 12.5 0 20.692 16.835 37.527 37.527 37.527h22.249c20.692 0 37.526-16.835 37.526-37.527 0-6.893-5.607-12.5-12.5-12.5h-4.699l-24.538-55.464c-1.178-2.789-4.03-4.658-7.061-4.592h-68.152v-20.084c0-13.602-11.066-24.667-24.667-24.667-13.602 0-24.667 11.066-24.667 24.667v20.082h-68.163c-3.024-.066-5.878 1.817-7.05 4.592l-24.538 55.464h-4.698zm255.597 15c-1.247 11.25-10.812 20.027-22.389 20.027h-22.249c-11.577 0-21.142-8.778-22.39-20.027zm-33.514-49.019 15.05 34.019h-30.101zm-102.634-46.12c0-5.331 4.337-9.668 9.668-9.668s9.667 4.337 9.667 9.668v169.43h-19.335zm47.686 184.43c4.068 0 7.378 3.309 7.378 7.378 0 4.068-3.309 7.378-7.378 7.378h-76.034c-4.068 0-7.378-3.309-7.378-7.378 0-4.068 3.31-7.378 7.378-7.378zm-97.469-89.291c-1.248 11.25-10.812 20.027-22.389 20.027h-22.249c-11.577 0-21.142-8.778-22.39-20.027zm-33.514-49.019 15.05 34.019h-30.101z"/><path d="m385.148 317.18h-208.071c-4.142 0-7.5 3.358-7.5 7.5s3.358 7.5 7.5 7.5h208.071c4.142 0 7.5-3.358 7.5-7.5s-3.358-7.5-7.5-7.5z"/><path d="m385.148 363.486h-208.071c-4.142 0-7.5 3.358-7.5 7.5s3.358 7.5 7.5 7.5h208.071c4.142 0 7.5-3.358 7.5-7.5s-3.358-7.5-7.5-7.5z"/></g></svg>