<svg  viewBox="0 0 1024 1024" xmlns="http://www.w3.org/2000/svg">
<g clip-path="url(#clip0)">
<path d="M882.296 712.7C820.437 659.792 757.658 627.743 696.558 680.572L660.073 712.5C633.379 735.678 583.748 843.972 391.855 623.228C200.002 402.763 314.171 368.436 340.905 345.459L377.589 313.49C438.37 260.542 415.432 193.887 371.595 125.274L345.141 83.7144C301.104 15.2613 253.151 -29.6948 192.21 23.1735L159.282 51.9454C132.349 71.5663 57.0621 135.344 38.7999 256.506C16.8214 401.884 86.1537 568.361 244.999 751.023C403.644 933.764 558.972 1025.55 706.108 1023.96C828.389 1022.64 902.237 957.022 925.334 933.165L958.382 904.353C1019.16 851.525 981.399 797.737 919.5 744.709L882.296 712.7Z"/>
</g>
<defs>
<clipPath id="clip0">
<rect width="1024" height="1024"/>
</clipPath>
</defs>
</svg>
