<svg viewBox="0 0 1024 1024" xmlns="http://www.w3.org/2000/svg">
<g clip-path="url(#clip0)">
<path d="M68.1317 452.541C383.855 313.503 792.399 143.99 848.814 120.523C996.739 59.1205 1042.13 70.8766 1019.5 206.885C1003.24 304.641 956.359 628.249 918.96 829.685C896.782 949.144 847.007 963.297 768.776 911.615C731.151 886.747 541.22 761.002 499.982 731.476C462.357 704.573 410.459 672.199 475.546 608.445C498.717 585.747 650.527 440.604 768.821 327.656C784.314 312.825 764.847 288.454 746.96 300.346C587.518 406.195 366.466 553.101 338.326 572.227C295.823 601.12 254.991 614.368 181.729 593.298C126.353 577.382 72.2871 558.391 51.2389 551.157C-29.8375 523.304 -10.596 487.222 68.1317 452.541Z"/>
</g>
<defs>
<clipPath id="clip0">
<rect width="1024" height="1024"/>
</clipPath>
</defs>
</svg>
