<?xml version="1.0" standalone="no"?>
<!DOCTYPE svg PUBLIC "-//W3C//DTD SVG 20010904//EN"
 "http://www.w3.org/TR/2001/REC-SVG-20010904/DTD/svg10.dtd">
<svg version="1.0" xmlns="http://www.w3.org/2000/svg"
 width="512.000000pt" height="512.000000pt" viewBox="0 0 512.000000 512.000000"
 preserveAspectRatio="xMidYMid meet">
<metadata>
Created by potrace 1.14, written by Peter Selinger 2001-2017
</metadata>
<g transform="translate(0.000000,512.000000) scale(0.100000,-0.100000)"
fill="#000000" stroke="none">
<path d="M757 4959 c-76 -18 -150 -91 -177 -173 -16 -51 -8 -141 18 -193 24
-47 81 -99 131 -121 32 -14 226 -16 1831 -16 l1795 -1 45 24 c103 53 144 119
145 231 0 110 -47 189 -143 237 -35 17 -114 18 -1822 20 -1045 0 -1801 -3
-1823 -8z"/>
<path d="M1029 4190 c-150 -43 -186 -247 -59 -338 165 -120 379 69 279 247
-40 72 -141 114 -220 91z"/>
<path d="M1984 4186 c-128 -47 -171 -204 -84 -305 87 -99 248 -85 313 27 37
64 28 165 -19 221 -48 57 -142 82 -210 57z"/>
<path d="M3010 4186 c-79 -23 -138 -121 -126 -208 16 -113 132 -189 241 -158
186 52 183 328 -4 369 -53 11 -63 11 -111 -3z"/>
<path d="M3989 4190 c-90 -26 -142 -94 -142 -185 0 -111 80 -189 195 -189 100
-1 174 70 184 176 7 67 -23 131 -81 170 -42 30 -110 42 -156 28z"/>
<path d="M1461 3611 c-41 -11 -107 -56 -134 -92 -11 -15 -27 -49 -36 -76 -15
-45 -17 -156 -15 -1284 1 -1387 -6 -1270 78 -1353 128 -128 335 -88 412 79
l24 50 -3 1250 c-2 1197 -3 1251 -21 1285 -26 49 -74 98 -120 122 -44 23 -133
32 -185 19z"/>
<path d="M2476 3604 c-66 -21 -140 -95 -159 -160 -12 -42 -14 -273 -14 -1559
0 -1702 -6 -1572 77 -1656 55 -55 117 -79 195 -74 70 4 135 36 178 86 68 79
64 -25 64 1644 0 1235 -2 1518 -13 1555 -40 133 -190 208 -328 164z"/>
<path d="M3520 3611 c-79 -26 -132 -72 -166 -146 l-24 -50 0 -1240 0 -1240 24
-50 c31 -66 65 -101 128 -130 125 -58 261 -11 332 115 l31 55 0 1235 c1 1118
-1 1239 -16 1282 -34 103 -118 166 -226 174 -32 2 -69 0 -83 -5z"/>
</g>
</svg>
